<?xml version="1.0" standalone="no"?>
<!DOCTYPE svg PUBLIC "-//W3C//DTD SVG 20010904//EN"
 "http://www.w3.org/TR/2001/REC-SVG-20010904/DTD/svg10.dtd">
<svg version="1.0" xmlns="http://www.w3.org/2000/svg"
 width="351.000000pt" height="362.000000pt" viewBox="0 0 351.000000 362.000000"
 preserveAspectRatio="xMidYMid meet">

<g transform="translate(0.000000,362.000000) scale(0.100000,-0.100000)"
fill="#000000" stroke="none">
<path d="M0 1810 l0 -1810 1755 0 1755 0 0 1810 0 1810 -1755 0 -1755 0 0
-1810z m2380 1124 c8 -8 -6 -43 -50 -126 -33 -63 -60 -123 -60 -133 0 -10 7
-27 17 -37 14 -16 33 -18 139 -18 67 0 129 -3 138 -6 25 -10 19 -45 -19 -108
-19 -32 -69 -124 -111 -205 -42 -80 -101 -193 -132 -251 -139 -267 -234 -435
-271 -481 -17 -22 -27 -23 -150 -27 -72 -3 -193 -1 -267 3 l-136 7 -32 52
c-18 28 -51 85 -73 126 -22 41 -53 98 -68 125 -16 28 -58 104 -95 170 -174
312 -290 538 -290 563 0 21 3 22 129 22 115 0 131 2 155 21 42 33 36 57 -56
211 -42 72 -44 94 -6 101 53 10 1227 2 1238 -9z m378 -438 c37 -19 75 -43 85
-54 17 -19 128 -375 334 -1077 66 -226 85 -290 99 -334 8 -24 13 -45 11 -47
-2 -2 -55 23 -118 55 -200 104 -373 162 -602 201 -185 31 -395 24 -546 -20
-36 -10 -58 -5 -25 6 10 3 53 19 94 34 41 16 134 38 205 50 264 45 526 4 783
-123 50 -25 86 -37 91 -31 6 5 -21 105 -65 249 -41 132 -98 314 -125 405 -28
91 -63 206 -79 255 -16 50 -45 143 -65 207 -39 129 -43 134 -147 167 -21 7
-40 16 -42 20 -5 7 32 71 40 71 3 0 35 -15 72 -34z m-2121 -163 c10 -15 13
-33 9 -49 -6 -24 -9 -25 -22 -12 -18 18 -29 81 -19 105 8 17 8 17 13 -2 2 -10
11 -29 19 -42z m-77 -310 c0 -11 -13 -61 -29 -110 -16 -48 -53 -167 -81 -263
-28 -96 -57 -193 -65 -215 -13 -39 -26 -80 -65 -212 -11 -38 -15 -65 -9 -69 5
-3 51 15 102 39 122 60 218 91 357 118 96 18 136 21 245 16 72 -3 148 -11 170
-16 22 -5 57 -13 78 -16 26 -4 37 -11 37 -23 0 -15 -12 -17 -121 -14 -284 8
-626 -81 -908 -237 -41 -23 -76 -40 -77 -38 -4 4 26 106 187 647 86 289 107
359 136 450 6 21 42 -27 43 -57z m1965 -948 c129 -33 279 -65 365 -76 253 -34
285 -38 303 -39 9 0 17 -4 17 -8 0 -5 -43 -17 -96 -26 -125 -24 -176 -19 -427
43 -314 78 -352 84 -477 85 -120 1 -134 -3 -331 -79 l-45 -18 -47 46 c-50 51
-77 58 -126 33 -15 -8 -36 -27 -45 -41 l-17 -25 -32 24 c-18 13 -52 32 -77 42
-57 22 -64 28 -53 48 7 13 17 11 76 -16 l67 -31 41 46 c34 39 47 47 76 47 37
0 79 -25 126 -74 26 -27 31 -29 50 -16 97 61 123 75 165 87 31 8 84 12 157 9
94 -3 143 -12 330 -61z m-1241 23 c-11 -35 -32 -45 -119 -58 -114 -17 -328
-63 -560 -120 -110 -27 -229 -54 -264 -59 -64 -10 -91 -8 -55 5 10 4 69 26
129 50 114 43 322 110 435 139 106 28 320 63 383 64 56 1 58 0 51 -21z m-1094
-438 c0 -32 -4 -61 -9 -64 -9 -6 -20 121 -12 130 12 12 21 -15 21 -66z m220 0
c0 -65 -19 -95 -21 -33 -2 39 -1 96 0 101 1 2 6 0 11 -3 6 -3 10 -33 10 -65z
m131 33 c5 -53 -1 -103 -12 -103 -5 0 -9 32 -9 70 0 74 15 97 21 33z m129 -25
c0 -93 -17 -108 -22 -19 -1 40 -1 75 1 77 15 14 21 -4 21 -58z m-330 42 c0 -5
-2 -10 -4 -10 -3 0 -8 5 -11 10 -3 6 -1 10 4 10 6 0 11 -4 11 -10z m127 -6 c3
-9 1 -25 -6 -36 -10 -16 -9 -23 5 -39 24 -27 8 -37 -18 -11 -19 19 -20 24 -8
46 10 21 11 28 0 41 -10 12 -10 15 4 15 9 0 19 -7 23 -16z m312 -39 c24 -64
26 -78 9 -73 -6 2 -19 29 -29 59 -21 63 -22 69 -10 69 5 0 19 -25 30 -55z
m-526 11 c-3 -18 0 -43 6 -55 13 -23 2 -28 -17 -9 -20 20 -13 98 8 98 5 0 6
-15 3 -34z m337 -22 c0 -8 -4 -12 -10 -9 -5 3 -10 10 -10 16 0 5 5 9 10 9 6 0
10 -7 10 -16z m-250 -29 c0 -14 -4 -25 -10 -25 -5 0 -10 11 -10 25 0 14 5 25
10 25 6 0 10 -11 10 -25z m367 -27 c-3 -8 -6 -5 -6 6 -1 11 2 17 5 13 3 -3 4
-12 1 -19z m155 -132 c29 -13 49 -68 38 -107 -19 -67 -42 -79 -149 -79 l-81 0
0 98 c0 54 2 101 4 103 7 6 169 -6 188 -15z m510 12 c15 -12 88 -168 88 -188
0 -16 -36 -12 -50 5 -18 21 -138 21 -146 0 -4 -9 -19 -15 -35 -15 -27 0 -37 9
-23 23 3 3 21 41 40 84 36 82 54 103 89 103 12 0 28 -6 37 -12z m-1002 -20
c29 -32 27 -81 -6 -107 -21 -16 -41 -21 -90 -21 -62 0 -64 -1 -64 -25 0 -20
-5 -25 -25 -25 l-25 0 0 100 0 100 95 0 c84 0 96 -2 115 -22z m270 -3 c0 -25
-1 -25 -85 -25 -69 0 -85 -3 -85 -15 0 -12 16 -15 85 -15 78 0 85 -2 85 -20 0
-18 -7 -20 -85 -20 -69 0 -85 -3 -85 -15 0 -12 16 -15 85 -15 84 0 85 0 85
-25 l0 -25 -104 0 c-85 0 -105 3 -110 16 -8 21 -8 169 1 177 3 4 53 7 110 7
l103 0 0 -25z m510 15 c10 -6 15 -33 17 -100 3 -89 2 -91 -20 -88 -17 2 -23
11 -25 36 l-3 32 -65 0 -64 0 0 -35 c0 -31 -3 -35 -25 -35 l-25 0 0 100 0 100
98 0 c53 0 104 -4 112 -10z m557 -80 c55 -110 56 -136 3 -90 -27 24 -130 29
-152 7 -22 -22 -48 -28 -48 -11 0 15 64 149 83 172 6 7 24 12 41 10 28 -3 35
-11 73 -88z m176 66 c13 -13 41 -44 62 -70 53 -66 65 -61 65 24 0 63 2 70 20
70 18 0 20 -7 20 -88 0 -148 -31 -149 -149 -4 -24 28 -47 49 -52 46 -5 -3 -9
-36 -9 -75 0 -62 -2 -69 -20 -69 -18 0 -20 7 -20 83 0 85 8 107 42 107 9 0 28
-11 41 -24z m417 4 c0 -18 -7 -20 -67 -20 -75 0 -103 -16 -103 -58 0 -42 27
-62 82 -62 47 0 48 1 48 30 0 23 4 30 20 30 17 0 20 -7 20 -45 0 -50 5 -48
-95 -45 -68 2 -99 22 -110 72 -16 73 35 117 138 118 60 0 67 -2 67 -20z m90
-60 l5 -75 64 -3 c45 -2 67 1 72 10 5 7 9 43 9 81 0 60 2 67 20 67 18 0 20 -7
20 -84 0 -106 -5 -111 -115 -111 -110 0 -115 5 -115 112 0 75 2 84 18 81 14
-3 18 -17 22 -78z m277 10 c0 -36 1 -71 2 -77 1 -9 24 -13 81 -13 75 0 80 -1
80 -21 0 -21 -4 -21 -89 -17 -53 2 -96 9 -105 17 -12 10 -16 33 -16 98 0 82 1
84 23 81 20 -3 22 -9 24 -68z m358 64 c14 -6 95 -163 95 -185 0 -17 -35 -9
-48 11 -10 16 -23 20 -71 20 -45 0 -62 -4 -76 -20 -24 -27 -59 -27 -50 -1 12
39 77 166 89 173 14 9 39 10 61 2z m339 -7 c15 -11 19 -31 22 -100 4 -81 3
-87 -15 -87 -16 0 -20 8 -23 38 l-3 37 -65 0 -65 0 -3 -37 c-3 -30 -7 -38 -23
-38 -18 0 -19 8 -19 100 l0 100 88 0 c58 0 94 -5 106 -13z m-833 -314 c1 -35
-1 -66 -4 -70 -4 -3 -7 27 -7 67 0 88 7 90 11 3z m619 22 c0 -13 -4 -26 -9
-29 -5 -4 -7 3 -4 14 3 11 0 27 -7 35 -11 13 -10 14 4 9 9 -3 16 -17 16 -29z
m138 6 c2 -13 -2 -28 -8 -35 -9 -8 -10 -4 -5 16 5 19 2 29 -12 37 -17 11 -17
12 2 9 12 -2 21 -12 23 -27z m102 -38 c0 -17 -3 -34 -7 -36 -5 -3 -8 17 -9 44
0 29 3 44 8 37 4 -7 8 -27 8 -45z m-743 -35 c-2 -18 -4 -6 -4 27 0 33 2 48 4
33 2 -15 2 -42 0 -60z m682 35 c0 -41 -2 -45 -11 -26 -10 20 -4 73 7 73 3 0 5
-21 4 -47z m-482 -45 c-2 -13 -4 -3 -4 22 0 25 2 35 4 23 2 -13 2 -33 0 -45z
m-145 22 c5 -31 -6 -41 -16 -15 -5 13 1 45 9 45 1 0 5 -13 7 -30z m108 -11 c0
-12 -38 12 -45 28 -3 9 4 8 20 -3 14 -9 25 -20 25 -25z m77 4 c-3 -10 -5 -4
-5 12 0 17 2 24 5 18 2 -7 2 -21 0 -30z m60 0 c-3 -10 -5 -4 -5 12 0 17 2 24
5 18 2 -7 2 -21 0 -30z m63 7 c8 -5 12 -11 10 -14 -3 -2 -14 2 -24 10 -22 15
-10 19 14 4z m100 -24 c0 -3 -4 -8 -10 -11 -5 -3 -10 -1 -10 4 0 6 5 11 10 11
6 0 10 -2 10 -4z m40 -6 c0 -5 -5 -10 -11 -10 -5 0 -7 5 -4 10 3 6 8 10 11 10
2 0 4 -4 4 -10z m50 0 c0 -5 -2 -10 -4 -10 -3 0 -8 5 -11 10 -3 6 -1 10 4 10
6 0 11 -4 11 -10z m50 0 c0 -5 -4 -10 -10 -10 -5 0 -10 5 -10 10 0 6 5 10 10
10 6 0 10 -4 10 -10z m35 0 c-3 -5 -12 -10 -18 -10 -7 0 -6 4 3 10 19 12 23
12 15 0z"/>
<path d="M1545 2571 c-29 -6 -30 -8 -33 -71 -1 -36 1 -135 5 -220 l8 -155 82
-3 82 -3 3 43 c3 41 5 43 39 49 111 17 179 139 138 246 -35 94 -180 145 -324
114z m191 -199 c30 -20 18 -72 -16 -72 -17 0 -20 7 -20 40 0 39 11 49 36 32z"/>
<path d="M1295 2348 c4 -117 9 -216 12 -220 2 -5 39 -8 83 -8 l78 0 6 88 c3
48 8 147 12 220 l6 132 -102 0 -102 0 7 -212z"/>
<path d="M1967 2553 c-3 -5 -10 -42 -17 -83 -6 -41 -25 -128 -41 -192 -39
-157 -39 -158 12 -158 33 0 42 4 46 21 l6 22 17 -23 c17 -22 17 -22 45 -4 25
16 28 17 37 1 7 -14 24 -17 88 -17 46 0 80 4 80 10 0 5 -15 76 -34 157 -19 82
-40 176 -47 211 l-12 62 -88 0 c-48 0 -90 -3 -92 -7z m72 -295 c13 -36 13 -35
-16 -40 -25 -3 -27 1 -18 42 8 39 20 38 34 -2z"/>
<path d="M1580 2073 c-1 -16 -7 -41 -15 -58 -11 -25 -14 -27 -14 -9 -1 12 -8
27 -16 34 -8 7 -15 16 -15 21 0 5 7 6 15 3 8 -4 15 -2 15 4 0 15 -26 22 -39 9
-16 -16 -14 -42 4 -57 20 -16 19 -34 -1 -26 -10 4 -14 1 -12 -6 3 -7 18 -13
36 -13 22 -1 32 4 36 18 5 21 26 14 26 -9 0 -8 7 -14 16 -14 11 0 14 5 9 17
-3 10 -11 39 -16 65 -12 52 -29 64 -29 21z"/>
<path d="M1290 2088 c-6 -39 -5 -118 2 -118 4 0 8 10 8 23 1 20 2 20 11 5 5
-10 14 -18 19 -18 5 0 11 8 13 18 4 13 5 11 6 -5 0 -13 7 -23 14 -23 8 0 12
17 11 55 -1 68 -9 78 -28 34 l-15 -34 -11 33 c-7 17 -16 32 -21 32 -5 0 -9 -1
-9 -2z"/>
<path d="M1399 2086 c-2 -2 -2 -30 -1 -61 l4 -56 35 6 c58 9 67 23 36 57 -14
16 -15 21 -4 27 17 11 5 32 -14 24 -17 -6 -20 -49 -5 -58 18 -11 11 -31 -11
-31 -18 0 -20 6 -18 45 3 39 -8 61 -22 47z"/>
<path d="M1779 2088 c0 -2 -1 -29 -2 -61 -2 -56 -2 -57 26 -57 15 0 27 5 27
10 0 6 -7 10 -15 10 -21 0 -19 16 3 25 16 6 16 7 0 16 -22 12 -23 29 -2 29 23
0 11 24 -14 28 -12 2 -22 2 -23 0z"/>
<path d="M1876 2082 c-9 -16 1 -106 13 -110 6 -2 11 7 12 20 l0 23 11 -22 c6
-13 15 -23 20 -23 11 0 10 27 -1 35 -5 3 -7 21 -4 40 3 21 2 35 -5 35 -6 0
-17 3 -25 6 -8 3 -18 1 -21 -4z m31 -44 c-3 -7 -5 -2 -5 12 0 14 2 19 5 13 2
-7 2 -19 0 -25z"/>
<path d="M1983 2083 c-21 -4 -23 -10 -23 -59 l0 -54 48 0 47 0 -1 57 c0 42 -4
58 -14 58 -11 0 -14 -12 -11 -47 2 -46 1 -48 -23 -48 -14 0 -26 5 -26 10 0 6
7 10 15 10 8 0 15 7 15 16 0 8 -4 13 -9 9 -13 -7 -24 12 -15 26 4 8 9 7 15 -2
6 -10 9 -8 9 9 0 12 -1 21 -2 21 -2 -1 -13 -4 -25 -6z"/>
<path d="M2079 2089 c-1 -2 -2 -30 -4 -61 -2 -44 1 -58 11 -58 10 0 12 8 8 30
-4 17 -4 30 -1 30 4 0 13 -13 22 -30 19 -37 35 -39 36 -2 l1 27 10 -28 c13
-37 58 -35 72 4 22 64 -29 115 -68 68 -12 -15 -17 -18 -13 -7 7 19 -7 33 -23
23 -6 -4 -6 -15 0 -30 6 -15 6 -25 0 -25 -5 0 -11 9 -15 19 -5 18 -34 48 -36
40z m135 -54 c3 -11 1 -27 -4 -35 -9 -13 -11 -13 -20 0 -11 17 -13 54 -3 64 8
8 19 -3 27 -29z"/>
<path d="M1646 2064 c-19 -18 -20 -34 -4 -69 19 -43 64 -30 74 21 10 56 -33
85 -70 48z m48 -48 c-8 -27 -11 -29 -23 -21 -12 7 -15 58 -4 69 12 12 34 -27
27 -48z"/>
<path d="M720 380 l0 -50 54 0 c62 0 79 14 74 62 l-3 33 -62 3 -63 3 0 -51z"/>
<path d="M1311 409 c-18 -51 -14 -59 24 -59 38 0 41 7 23 57 -15 42 -33 42
-47 2z"/>
<path d="M212 403 c3 -26 7 -28 54 -31 54 -3 82 14 70 43 -4 11 -21 15 -66 15
-61 0 -61 0 -58 -27z"/>
<path d="M992 418 c3 -21 9 -23 56 -23 52 -1 80 14 67 35 -3 5 -33 10 -66 10
-57 0 -60 -1 -57 -22z"/>
<path d="M1600 404 c-11 -25 -18 -50 -14 -55 7 -11 81 -12 88 -1 5 8 -13 67
-27 90 -15 22 -27 13 -47 -34z"/>
<path d="M2983 438 c-15 -19 -34 -79 -27 -89 7 -12 75 -8 80 5 6 16 -20 89
-33 93 -5 2 -15 -2 -20 -9z"/>
<path d="M3210 415 c0 -26 1 -26 68 -23 59 3 67 5 67 23 0 18 -8 20 -67 23
-67 3 -68 3 -68 -23z"/>
</g>
</svg>
